<?xml version="1.0" encoding="UTF-8" standalone="no"?>
<!-- Created with Inkscape (http://www.inkscape.org/) -->

<svg
   width="141.72487mm"
   height="229.85941mm"
   viewBox="0 0 141.72487 229.85941"
   version="1.1"
   id="svg1"
   xml:space="preserve"
   inkscape:version="1.3.2 (091e20ef0f, 2023-11-25, custom)"
   sodipodi:docname="logo-1.svg"
   xmlns:inkscape="http://www.inkscape.org/namespaces/inkscape"
   xmlns:sodipodi="http://sodipodi.sourceforge.net/DTD/sodipodi-0.dtd"
   xmlns="http://www.w3.org/2000/svg"
   xmlns:svg="http://www.w3.org/2000/svg"><sodipodi:namedview
     id="namedview1"
     pagecolor="#ffffff"
     bordercolor="#000000"
     borderopacity="0.25"
     inkscape:showpageshadow="2"
     inkscape:pageopacity="0.0"
     inkscape:pagecheckerboard="0"
     inkscape:deskcolor="#d1d1d1"
     inkscape:document-units="mm"
     inkscape:zoom="0.7786055"
     inkscape:cx="139.99387"
     inkscape:cy="394.29467"
     inkscape:window-width="1920"
     inkscape:window-height="1058"
     inkscape:window-x="0"
     inkscape:window-y="22"
     inkscape:window-maximized="0"
     inkscape:current-layer="layer1" /><defs
     id="defs1" /><g
     inkscape:label="Layer 1"
     inkscape:groupmode="layer"
     id="layer1"
     transform="translate(-34.141009,-34.364975)"><path
       style="opacity:1;fill:#666666;fill-opacity:1;stroke:#000000;stroke-width:0;stroke-dasharray:none;stroke-opacity:1;paint-order:stroke markers fill"
       d="m 36.106605,132.284 -0.379489,-52.672765 9.97068,-21.832744 10.635114,-10.222754 18.656123,-9.632175 9.426831,-2.534581 42.848406,-0.02983 25.09343,10.483836 10.87738,9.859357 10.56268,22.885191 1.38638,27.133825 -5.17978,97.20363 -15.71213,19.91058 -11.53488,15.00366 -8.39771,8.19454 -5.95559,9.30196 -10.47003,5.11239 -12.71769,2.46448 -18.743507,-3.84107 -9.038522,-8.86632 -7.239624,-10.32959 -16.634409,-18.60854 -12.729337,-17.49975 z"
       id="path11" /><path
       style="opacity:1;fill:#b3b3b3;fill-opacity:1;stroke:#000000;stroke-width:0;stroke-dasharray:none;stroke-opacity:1;paint-order:stroke markers fill"
       d="m 76.931818,219.29702 2.864144,-2.75944 6.063263,-1.12844 6.633278,0.007 15.773897,-0.2153 10.33532,-0.0126 7.80742,0.20009 5.30385,2.20933 1.62172,2.268 -0.42999,1.10303 -8.20875,-0.96005 -16.672,-0.55399 -15.193358,0.16621 -11.566544,0.42575 -3.874365,0.64639 z"
       id="path10" /><path
       style="fill:#000000;fill-opacity:1"
       d="m 104.09012,264.22 c -2.28132,-0.0685 -7.162283,-0.85216 -10.846588,-1.74141 -4.353375,-1.05075 -8.401141,-3.01183 -11.561079,-5.60116 -2.674288,-2.19138 -6.068316,-6.34238 -7.542284,-9.22445 -1.473968,-2.88208 -4.935033,-7.10728 -7.691256,-9.38935 C 63.692691,235.98156 56.6313,227.37757 50.756935,219.14364 L 40.07627,204.17287 38.227782,187.3023 c -1.016668,-9.27882 -2.351932,-30.02963 -2.967254,-46.11291 -0.615322,-16.08328 -1.119104,-36.32798 -1.119516,-44.988204 -7.29e-4,-15.297649 0.110839,-16.034014 3.919324,-25.868217 2.352358,-6.07422 5.772691,-12.371304 8.552547,-15.745871 2.54786,-3.092939 7.238342,-7.255008 10.423293,-9.249043 3.184952,-1.994035 10.092819,-5.27872 15.350815,-7.299299 l 9.559995,-3.673781 h 23.056454 23.05646 l 9.55999,3.673781 c 5.258,2.020579 12.16587,5.305264 15.35082,7.299299 3.18495,1.994035 7.87543,6.156104 10.42329,9.249043 2.77986,3.374567 6.20019,9.671651 8.55255,15.745871 3.80848,9.834203 3.92005,10.570568 3.91932,25.868217 -4.1e-4,8.660224 -0.50419,28.904924 -1.11951,44.988204 -0.61532,16.08328 -1.95059,36.83409 -2.96726,46.11291 l -1.84848,16.87057 -10.68067,14.97077 c -5.87436,8.23393 -12.93576,16.83792 -15.69198,19.11999 -2.75622,2.28207 -6.21729,6.50727 -7.69125,9.38935 -1.47397,2.88207 -4.84967,7.01805 -7.50155,9.19107 -3.3936,2.7808 -7.08811,4.47658 -12.4744,5.72574 -4.20904,0.97614 -9.51933,1.71874 -11.80065,1.65021 z m -0.0682,-2.25033 c 1.00665,0.069 5.56171,-0.71555 10.12235,-1.74351 4.96226,-1.11848 9.79322,-3.03797 12.0303,-4.77999 2.05602,-1.60104 4.94433,-5.25507 6.41847,-8.12007 1.47414,-2.86499 5.40295,-7.67311 8.7307,-10.6847 3.32774,-3.01158 10.48621,-11.66138 15.90769,-19.22176 l 9.85725,-13.74616 2.01776,-16.62088 c 1.10977,-9.14148 2.58537,-31.8044 3.27913,-50.36203 0.69375,-18.55764 1.25315,-38.379324 1.24311,-44.048198 -0.016,-9.03791 -0.50255,-11.576138 -3.95144,-20.613762 -2.24191,-5.874805 -5.7482,-12.526097 -8.15411,-15.468035 -2.32151,-2.838725 -6.92072,-6.890965 -10.22047,-9.004978 -3.29975,-2.114014 -10.3854,-5.434558 -15.74587,-7.378987 -9.60855,-3.485346 -10.04048,-3.535326 -30.55338,-3.535326 -20.512891,0 -20.944829,0.04998 -30.55337,3.535326 -5.360479,1.944429 -12.446122,5.264973 -15.745873,7.378987 -3.299751,2.114013 -7.898961,6.166253 -10.220467,9.004978 -2.405914,2.941938 -5.912202,9.59323 -8.154113,15.468035 -3.448888,9.037624 -3.93544,11.575852 -3.951445,20.613762 -0.01004,5.668874 0.549364,25.490558 1.243116,44.048198 0.693753,18.55763 2.16936,41.22055 3.279127,50.36203 l 2.017759,16.62088 9.857249,13.74616 c 5.421487,7.56038 12.57995,16.21018 15.907696,19.22176 3.327746,3.01159 7.242344,7.81971 8.699106,10.6847 1.456762,2.865 4.342763,6.47438 6.413334,8.02085 2.070572,1.54647 7.056751,3.64099 11.080398,4.65449 4.023648,1.01349 8.139343,1.8992 9.145993,1.96823 z M 79.416399,221.04284 c -3.208584,0.74098 -3.655292,0.56272 -3.655292,-1.45864 0,-1.64574 1.203391,-2.72879 4.217645,-3.79588 2.924207,-1.03521 10.5986,-1.4931 25.024688,-1.4931 14.42609,0 22.10049,0.45789 25.02469,1.4931 3.01426,1.06709 4.21765,2.15014 4.21765,3.79588 0,2.02136 -0.44671,2.19962 -3.65529,1.45864 -2.01041,-0.46428 -13.52458,-0.84415 -25.58705,-0.84415 -12.062461,0 -23.57663,0.37987 -25.587041,0.84415 z m 0.562353,-1.5003 c 1.082528,-0.55974 12.596698,-0.95713 25.587048,-0.8831 12.99034,0.074 24.25145,0.54406 25.02469,1.0445 0.7807,0.50529 1.40588,0.42918 1.40588,-0.17115 0,-0.59458 -1.59388,-1.63668 -3.54195,-2.31578 -2.05566,-0.71661 -11.89628,-1.23473 -23.45098,-1.23473 -11.554697,0 -21.395317,0.51812 -23.450975,1.23473 -1.948071,0.6791 -3.541947,1.70914 -3.541947,2.28898 0,0.64194 0.769761,0.65623 1.968234,0.0366 z m -8.154113,-48.58416 c -3.592324,0.009 -7.654728,-0.94415 -11.247052,-2.63821 -3.09294,-1.45856 -6.730877,-3.85767 -8.084305,-5.33136 -1.353429,-1.47369 -3.493312,-4.95696 -4.755297,-7.74061 -1.328794,-2.93101 -2.294517,-7.42802 -2.294517,-10.6847 0,-3.25668 0.965723,-7.75368 2.294517,-10.68469 1.261985,-2.78365 3.401868,-6.26692 4.755297,-7.74061 1.353428,-1.47369 4.991365,-3.87281 8.084305,-5.33136 3.568249,-1.68271 7.678802,-2.65193 11.247052,-2.65193 3.568249,0 7.678803,0.96922 11.247052,2.65193 3.092939,1.45855 6.730877,3.85767 8.084305,5.33136 1.353428,1.47369 3.493312,4.95696 4.755296,7.74061 1.317597,2.90631 2.300357,7.45546 2.308232,10.68469 0.0088,3.59233 -0.944155,7.65473 -2.638214,11.24705 -1.458559,3.09294 -3.857672,6.73088 -5.331362,8.08431 -1.47369,1.35343 -4.956964,3.49331 -7.74061,4.75529 -2.906313,1.3176 -7.455462,2.30036 -10.684699,2.30823 z m 2.043186,-2.71087 c 4.648199,-0.30398 7.819868,-1.27349 10.956273,-3.34906 2.427846,-1.60667 5.81041,-5.03094 7.516808,-7.60948 2.660104,-4.01969 3.102542,-5.83441 3.102542,-12.72547 0,-6.89106 -0.442438,-8.70577 -3.102542,-12.72546 -1.706398,-2.57854 -5.212258,-6.0844 -7.7908,-7.7908 -4.019689,-2.6601 -5.834405,-3.10254 -12.725467,-3.10254 -6.891062,0 -8.705779,0.44244 -12.725467,3.10254 -2.578542,1.7064 -5.972256,5.04279 -7.541587,7.41421 -1.599493,2.417 -3.139687,6.73727 -3.50499,9.83157 -0.358415,3.03594 -0.05937,7.71582 0.664547,10.39972 0.851426,3.15665 3.049188,6.6128 6.223796,9.78741 2.699173,2.69918 6.589978,5.4223 8.646234,6.0514 2.056255,0.62909 6.682549,0.95128 10.280653,0.71596 z m 64.314425,2.71087 c -3.59233,0.009 -7.65473,-0.94415 -11.24706,-2.63821 -3.09293,-1.45856 -6.73087,-3.85767 -8.0843,-5.33136 -1.35343,-1.47369 -3.49331,-4.95696 -4.7553,-7.74061 -1.32879,-2.93101 -2.29451,-7.42802 -2.29451,-10.6847 0,-3.25668 0.96572,-7.75368 2.29451,-10.68469 1.26199,-2.78365 3.40187,-6.26692 4.7553,-7.74061 1.35343,-1.47369 4.99137,-3.87281 8.0843,-5.33136 3.56825,-1.68271 7.67881,-2.65193 11.24706,-2.65193 3.56825,0 7.6788,0.96922 11.24705,2.65193 3.09294,1.45855 6.73088,3.85767 8.0843,5.33136 1.35343,1.47369 3.49332,4.95696 4.7553,7.74061 1.3176,2.90631 2.30036,7.45546 2.30823,10.68469 0.009,3.59233 -0.94415,7.65473 -2.63821,11.24705 -1.45856,3.09294 -3.85767,6.73088 -5.33136,8.08431 -1.47369,1.35343 -4.95697,3.49331 -7.74061,4.75529 -2.90632,1.3176 -7.45547,2.30036 -10.6847,2.30823 z m 2.04318,-2.71087 c 4.6482,-0.30398 7.81987,-1.27349 10.95628,-3.34906 2.42784,-1.60667 5.81041,-5.03094 7.5168,-7.60948 2.66011,-4.01969 3.10255,-5.83441 3.10255,-12.72547 0,-6.89106 -0.44244,-8.70577 -3.10255,-12.72546 -1.70639,-2.57854 -5.21225,-6.0844 -7.7908,-7.7908 -4.01968,-2.6601 -5.8344,-3.10254 -12.72546,-3.10254 -6.89107,0 -8.70578,0.44244 -12.72547,3.10254 -2.57854,1.7064 -5.97226,5.04279 -7.54159,7.41421 -1.59949,2.417 -3.13968,6.73727 -3.50499,9.83157 -0.35841,3.03594 -0.0594,7.71582 0.66455,10.39972 0.85143,3.15665 3.04919,6.6128 6.2238,9.78741 2.69917,2.69918 6.58997,5.4223 8.64623,6.0514 2.05626,0.62909 6.68255,0.95128 10.28065,0.71596 z"
       id="path2" /><ellipse
       style="opacity:1;fill:#ffd42a;fill-opacity:1;stroke:#000000;stroke-width:0;stroke-dasharray:none;stroke-opacity:1;paint-order:stroke markers fill"
       id="path5"
       ry="24.798698"
       rx="24.927155"
       cy="144.58768"
       cx="138.32431" /><ellipse
       style="fill:#ffd42a;fill-opacity:1;stroke:#000000;stroke-width:0;stroke-dasharray:none;stroke-opacity:1;paint-order:stroke markers fill"
       id="path5-6"
       ry="24.798698"
       rx="24.927155"
       cy="144.40727"
       cx="71.813721" /></g></svg>
